<mxfile host="app.diagrams.net" modified="2023-02-12T18:58:19.103Z" agent="5.0 (Macintosh; Intel Mac OS X 10_15_7) AppleWebKit/605.1.15 (KHTML, like Gecko) Version/16.2 Safari/605.1.15" etag="g6WA7R-Qgj7S3upih4i9" version="20.8.20" type="github">
  <diagram name="Page-1" id="uejnDg9jBYQVSxd5H_gI">
    <mxGraphModel dx="484" dy="246" grid="1" gridSize="10" guides="1" tooltips="1" connect="1" arrows="1" fold="1" page="1" pageScale="1" pageWidth="827" pageHeight="1169" math="0" shadow="0">
      <root>
        <mxCell id="0" />
        <mxCell id="1" parent="0" />
        <mxCell id="CX7M1dYOw_JfQIzqgFtG-18" style="edgeStyle=orthogonalEdgeStyle;rounded=0;orthogonalLoop=1;jettySize=auto;html=1;strokeColor=#330000;strokeWidth=1;endArrow=none;endFill=0;" edge="1" parent="1" source="CX7M1dYOw_JfQIzqgFtG-1">
          <mxGeometry relative="1" as="geometry">
            <mxPoint x="360" y="670" as="targetPoint" />
          </mxGeometry>
        </mxCell>
        <mxCell id="CX7M1dYOw_JfQIzqgFtG-1" value="bin" style="text;html=1;strokeColor=none;fillColor=none;align=left;verticalAlign=middle;whiteSpace=wrap;rounded=0;" vertex="1" parent="1">
          <mxGeometry x="380" y="530" width="40" height="15" as="geometry" />
        </mxCell>
        <mxCell id="CX7M1dYOw_JfQIzqgFtG-19" style="edgeStyle=orthogonalEdgeStyle;rounded=0;orthogonalLoop=1;jettySize=auto;html=1;strokeColor=#330000;strokeWidth=1;endArrow=none;endFill=0;" edge="1" parent="1" source="CX7M1dYOw_JfQIzqgFtG-2">
          <mxGeometry relative="1" as="geometry">
            <mxPoint x="360" y="552.5" as="targetPoint" />
          </mxGeometry>
        </mxCell>
        <mxCell id="CX7M1dYOw_JfQIzqgFtG-2" value="boot" style="text;html=1;strokeColor=none;fillColor=none;align=left;verticalAlign=middle;whiteSpace=wrap;rounded=0;" vertex="1" parent="1">
          <mxGeometry x="380" y="545" width="40" height="15" as="geometry" />
        </mxCell>
        <mxCell id="CX7M1dYOw_JfQIzqgFtG-25" style="edgeStyle=orthogonalEdgeStyle;rounded=0;orthogonalLoop=1;jettySize=auto;html=1;strokeColor=#330000;strokeWidth=1;endArrow=none;endFill=0;" edge="1" parent="1" source="CX7M1dYOw_JfQIzqgFtG-3">
          <mxGeometry relative="1" as="geometry">
            <mxPoint x="360" y="566.5" as="targetPoint" />
          </mxGeometry>
        </mxCell>
        <mxCell id="CX7M1dYOw_JfQIzqgFtG-3" value="dev" style="text;html=1;strokeColor=none;fillColor=none;align=left;verticalAlign=middle;whiteSpace=wrap;rounded=0;" vertex="1" parent="1">
          <mxGeometry x="380" y="559" width="40" height="15" as="geometry" />
        </mxCell>
        <mxCell id="CX7M1dYOw_JfQIzqgFtG-26" style="edgeStyle=orthogonalEdgeStyle;rounded=0;orthogonalLoop=1;jettySize=auto;html=1;strokeColor=#330000;strokeWidth=1;endArrow=none;endFill=0;" edge="1" parent="1" source="CX7M1dYOw_JfQIzqgFtG-4">
          <mxGeometry relative="1" as="geometry">
            <mxPoint x="360" y="581.5" as="targetPoint" />
          </mxGeometry>
        </mxCell>
        <mxCell id="CX7M1dYOw_JfQIzqgFtG-4" value="etc" style="text;html=1;strokeColor=none;fillColor=none;align=left;verticalAlign=middle;whiteSpace=wrap;rounded=0;" vertex="1" parent="1">
          <mxGeometry x="380" y="574" width="40" height="15" as="geometry" />
        </mxCell>
        <mxCell id="CX7M1dYOw_JfQIzqgFtG-27" style="edgeStyle=orthogonalEdgeStyle;rounded=0;orthogonalLoop=1;jettySize=auto;html=1;strokeColor=#330000;strokeWidth=1;endArrow=none;endFill=0;" edge="1" parent="1" source="CX7M1dYOw_JfQIzqgFtG-5">
          <mxGeometry relative="1" as="geometry">
            <mxPoint x="360" y="595.5" as="targetPoint" />
          </mxGeometry>
        </mxCell>
        <mxCell id="CX7M1dYOw_JfQIzqgFtG-5" value="home" style="text;html=1;strokeColor=none;fillColor=none;align=left;verticalAlign=middle;whiteSpace=wrap;rounded=0;" vertex="1" parent="1">
          <mxGeometry x="380" y="588" width="40" height="15" as="geometry" />
        </mxCell>
        <mxCell id="CX7M1dYOw_JfQIzqgFtG-29" style="edgeStyle=orthogonalEdgeStyle;rounded=0;orthogonalLoop=1;jettySize=auto;html=1;strokeColor=#330000;strokeWidth=1;endArrow=none;endFill=0;" edge="1" parent="1" source="CX7M1dYOw_JfQIzqgFtG-6">
          <mxGeometry relative="1" as="geometry">
            <mxPoint x="360" y="610.5" as="targetPoint" />
          </mxGeometry>
        </mxCell>
        <mxCell id="CX7M1dYOw_JfQIzqgFtG-6" value="media" style="text;html=1;strokeColor=none;fillColor=none;align=left;verticalAlign=middle;whiteSpace=wrap;rounded=0;" vertex="1" parent="1">
          <mxGeometry x="380" y="603" width="40" height="15" as="geometry" />
        </mxCell>
        <mxCell id="CX7M1dYOw_JfQIzqgFtG-30" style="edgeStyle=orthogonalEdgeStyle;rounded=0;orthogonalLoop=1;jettySize=auto;html=1;strokeColor=#330000;strokeWidth=1;endArrow=none;endFill=0;" edge="1" parent="1" source="CX7M1dYOw_JfQIzqgFtG-7">
          <mxGeometry relative="1" as="geometry">
            <mxPoint x="360" y="625.5" as="targetPoint" />
          </mxGeometry>
        </mxCell>
        <mxCell id="CX7M1dYOw_JfQIzqgFtG-7" value="root" style="text;html=1;strokeColor=none;fillColor=none;align=left;verticalAlign=middle;whiteSpace=wrap;rounded=0;" vertex="1" parent="1">
          <mxGeometry x="380" y="618" width="40" height="15" as="geometry" />
        </mxCell>
        <mxCell id="CX7M1dYOw_JfQIzqgFtG-31" style="edgeStyle=orthogonalEdgeStyle;rounded=0;orthogonalLoop=1;jettySize=auto;html=1;strokeColor=#330000;strokeWidth=1;endArrow=none;endFill=0;" edge="1" parent="1" source="CX7M1dYOw_JfQIzqgFtG-8">
          <mxGeometry relative="1" as="geometry">
            <mxPoint x="360" y="639.5" as="targetPoint" />
          </mxGeometry>
        </mxCell>
        <mxCell id="CX7M1dYOw_JfQIzqgFtG-8" value="sbin" style="text;html=1;strokeColor=none;fillColor=none;align=left;verticalAlign=middle;whiteSpace=wrap;rounded=0;" vertex="1" parent="1">
          <mxGeometry x="380" y="632" width="40" height="15" as="geometry" />
        </mxCell>
        <mxCell id="CX7M1dYOw_JfQIzqgFtG-32" style="edgeStyle=orthogonalEdgeStyle;rounded=0;orthogonalLoop=1;jettySize=auto;html=1;strokeColor=#330000;strokeWidth=1;endArrow=none;endFill=0;" edge="1" parent="1" source="CX7M1dYOw_JfQIzqgFtG-9">
          <mxGeometry relative="1" as="geometry">
            <mxPoint x="360" y="654.5" as="targetPoint" />
          </mxGeometry>
        </mxCell>
        <mxCell id="CX7M1dYOw_JfQIzqgFtG-9" value="tmp" style="text;html=1;strokeColor=none;fillColor=none;align=left;verticalAlign=middle;whiteSpace=wrap;rounded=0;" vertex="1" parent="1">
          <mxGeometry x="380" y="647" width="40" height="15" as="geometry" />
        </mxCell>
        <mxCell id="CX7M1dYOw_JfQIzqgFtG-33" style="edgeStyle=orthogonalEdgeStyle;rounded=0;orthogonalLoop=1;jettySize=auto;html=1;strokeColor=#330000;strokeWidth=1;endArrow=none;endFill=0;" edge="1" parent="1" source="CX7M1dYOw_JfQIzqgFtG-10">
          <mxGeometry relative="1" as="geometry">
            <mxPoint x="360" y="669.5" as="targetPoint" />
          </mxGeometry>
        </mxCell>
        <mxCell id="CX7M1dYOw_JfQIzqgFtG-59" style="edgeStyle=orthogonalEdgeStyle;rounded=0;orthogonalLoop=1;jettySize=auto;html=1;strokeColor=#330000;strokeWidth=1;endArrow=none;endFill=0;" edge="1" parent="1">
          <mxGeometry relative="1" as="geometry">
            <mxPoint x="450" y="622" as="targetPoint" />
            <mxPoint x="410" y="671.4942528735634" as="sourcePoint" />
            <Array as="points">
              <mxPoint x="430" y="671" />
              <mxPoint x="430" y="630" />
              <mxPoint x="450" y="630" />
            </Array>
          </mxGeometry>
        </mxCell>
        <mxCell id="CX7M1dYOw_JfQIzqgFtG-10" value="usr" style="text;html=1;strokeColor=none;fillColor=none;align=left;verticalAlign=middle;whiteSpace=wrap;rounded=0;" vertex="1" parent="1">
          <mxGeometry x="380" y="662" width="30" height="15" as="geometry" />
        </mxCell>
        <mxCell id="CX7M1dYOw_JfQIzqgFtG-34" style="edgeStyle=orthogonalEdgeStyle;rounded=0;orthogonalLoop=1;jettySize=auto;html=1;strokeColor=#330000;strokeWidth=1;endArrow=none;endFill=0;" edge="1" parent="1" source="CX7M1dYOw_JfQIzqgFtG-11">
          <mxGeometry relative="1" as="geometry">
            <mxPoint x="360" y="670" as="targetPoint" />
          </mxGeometry>
        </mxCell>
        <mxCell id="CX7M1dYOw_JfQIzqgFtG-58" style="edgeStyle=orthogonalEdgeStyle;rounded=0;orthogonalLoop=1;jettySize=auto;html=1;strokeColor=#330000;strokeWidth=1;endArrow=none;endFill=0;" edge="1" parent="1" source="CX7M1dYOw_JfQIzqgFtG-11">
          <mxGeometry relative="1" as="geometry">
            <mxPoint x="450" y="683.5000000000001" as="targetPoint" />
          </mxGeometry>
        </mxCell>
        <mxCell id="CX7M1dYOw_JfQIzqgFtG-11" value="var" style="text;html=1;strokeColor=none;fillColor=none;align=left;verticalAlign=middle;whiteSpace=wrap;rounded=0;" vertex="1" parent="1">
          <mxGeometry x="380" y="676" width="30" height="15" as="geometry" />
        </mxCell>
        <mxCell id="CX7M1dYOw_JfQIzqgFtG-17" style="edgeStyle=orthogonalEdgeStyle;rounded=0;orthogonalLoop=1;jettySize=auto;html=1;strokeColor=#330000;endArrow=none;endFill=0;strokeWidth=1;fillColor=#dae8fc;" edge="1" parent="1" source="CX7M1dYOw_JfQIzqgFtG-12">
          <mxGeometry relative="1" as="geometry">
            <mxPoint x="360" y="610.5" as="targetPoint" />
          </mxGeometry>
        </mxCell>
        <mxCell id="CX7M1dYOw_JfQIzqgFtG-12" value="/" style="text;html=1;strokeColor=none;fillColor=none;align=center;verticalAlign=middle;whiteSpace=wrap;rounded=0;" vertex="1" parent="1">
          <mxGeometry x="320" y="603" width="10" height="15" as="geometry" />
        </mxCell>
        <mxCell id="CX7M1dYOw_JfQIzqgFtG-41" style="edgeStyle=orthogonalEdgeStyle;rounded=0;orthogonalLoop=1;jettySize=auto;html=1;strokeColor=#330000;strokeWidth=1;endArrow=none;endFill=0;" edge="1" parent="1" source="CX7M1dYOw_JfQIzqgFtG-13">
          <mxGeometry relative="1" as="geometry">
            <mxPoint x="450" y="750" as="targetPoint" />
          </mxGeometry>
        </mxCell>
        <mxCell id="CX7M1dYOw_JfQIzqgFtG-13" value="lib" style="text;html=1;strokeColor=none;fillColor=none;align=left;verticalAlign=middle;whiteSpace=wrap;rounded=0;" vertex="1" parent="1">
          <mxGeometry x="470" y="668.5" width="40" height="15" as="geometry" />
        </mxCell>
        <mxCell id="CX7M1dYOw_JfQIzqgFtG-42" style="edgeStyle=orthogonalEdgeStyle;rounded=0;orthogonalLoop=1;jettySize=auto;html=1;strokeColor=#330000;strokeWidth=1;endArrow=none;endFill=0;" edge="1" parent="1" source="CX7M1dYOw_JfQIzqgFtG-14">
          <mxGeometry relative="1" as="geometry">
            <mxPoint x="450" y="691.0000000000001" as="targetPoint" />
          </mxGeometry>
        </mxCell>
        <mxCell id="CX7M1dYOw_JfQIzqgFtG-14" value="log" style="text;html=1;strokeColor=none;fillColor=none;align=left;verticalAlign=middle;whiteSpace=wrap;rounded=0;" vertex="1" parent="1">
          <mxGeometry x="470" y="683.5" width="40" height="15" as="geometry" />
        </mxCell>
        <mxCell id="CX7M1dYOw_JfQIzqgFtG-43" style="edgeStyle=orthogonalEdgeStyle;rounded=0;orthogonalLoop=1;jettySize=auto;html=1;strokeColor=#330000;strokeWidth=1;endArrow=none;endFill=0;" edge="1" parent="1" source="CX7M1dYOw_JfQIzqgFtG-35">
          <mxGeometry relative="1" as="geometry">
            <mxPoint x="450" y="706.0000000000001" as="targetPoint" />
          </mxGeometry>
        </mxCell>
        <mxCell id="CX7M1dYOw_JfQIzqgFtG-35" value="mail" style="text;html=1;strokeColor=none;fillColor=none;align=left;verticalAlign=middle;whiteSpace=wrap;rounded=0;" vertex="1" parent="1">
          <mxGeometry x="470" y="698.5" width="40" height="15" as="geometry" />
        </mxCell>
        <mxCell id="CX7M1dYOw_JfQIzqgFtG-44" style="edgeStyle=orthogonalEdgeStyle;rounded=0;orthogonalLoop=1;jettySize=auto;html=1;strokeColor=#330000;strokeWidth=1;endArrow=none;endFill=0;" edge="1" parent="1" source="CX7M1dYOw_JfQIzqgFtG-36">
          <mxGeometry relative="1" as="geometry">
            <mxPoint x="450" y="721.0000000000001" as="targetPoint" />
          </mxGeometry>
        </mxCell>
        <mxCell id="CX7M1dYOw_JfQIzqgFtG-36" value="run" style="text;html=1;strokeColor=none;fillColor=none;align=left;verticalAlign=middle;whiteSpace=wrap;rounded=0;" vertex="1" parent="1">
          <mxGeometry x="470" y="713.5" width="40" height="15" as="geometry" />
        </mxCell>
        <mxCell id="CX7M1dYOw_JfQIzqgFtG-45" style="edgeStyle=orthogonalEdgeStyle;rounded=0;orthogonalLoop=1;jettySize=auto;html=1;strokeColor=#330000;strokeWidth=1;endArrow=none;endFill=0;" edge="1" parent="1" source="CX7M1dYOw_JfQIzqgFtG-37">
          <mxGeometry relative="1" as="geometry">
            <mxPoint x="450" y="736.0000000000001" as="targetPoint" />
          </mxGeometry>
        </mxCell>
        <mxCell id="CX7M1dYOw_JfQIzqgFtG-37" value="spool" style="text;html=1;strokeColor=none;fillColor=none;align=left;verticalAlign=middle;whiteSpace=wrap;rounded=0;" vertex="1" parent="1">
          <mxGeometry x="470" y="728.5" width="40" height="15" as="geometry" />
        </mxCell>
        <mxCell id="CX7M1dYOw_JfQIzqgFtG-46" style="edgeStyle=orthogonalEdgeStyle;rounded=0;orthogonalLoop=1;jettySize=auto;html=1;strokeColor=#330000;strokeWidth=1;endArrow=none;endFill=0;" edge="1" parent="1" source="CX7M1dYOw_JfQIzqgFtG-38">
          <mxGeometry relative="1" as="geometry">
            <mxPoint x="450" y="740" as="targetPoint" />
          </mxGeometry>
        </mxCell>
        <mxCell id="CX7M1dYOw_JfQIzqgFtG-38" value="tmp" style="text;html=1;strokeColor=none;fillColor=none;align=left;verticalAlign=middle;whiteSpace=wrap;rounded=0;" vertex="1" parent="1">
          <mxGeometry x="470" y="743.5" width="40" height="15" as="geometry" />
        </mxCell>
        <mxCell id="CX7M1dYOw_JfQIzqgFtG-53" style="edgeStyle=orthogonalEdgeStyle;rounded=0;orthogonalLoop=1;jettySize=auto;html=1;strokeColor=#330000;strokeWidth=1;endArrow=none;endFill=0;" edge="1" parent="1" source="CX7M1dYOw_JfQIzqgFtG-48">
          <mxGeometry relative="1" as="geometry">
            <mxPoint x="450" y="640" as="targetPoint" />
          </mxGeometry>
        </mxCell>
        <mxCell id="CX7M1dYOw_JfQIzqgFtG-48" value="bin" style="text;html=1;strokeColor=none;fillColor=none;align=left;verticalAlign=middle;whiteSpace=wrap;rounded=0;" vertex="1" parent="1">
          <mxGeometry x="470" y="602" width="40" height="15" as="geometry" />
        </mxCell>
        <mxCell id="CX7M1dYOw_JfQIzqgFtG-55" style="edgeStyle=orthogonalEdgeStyle;rounded=0;orthogonalLoop=1;jettySize=auto;html=1;strokeColor=#330000;strokeWidth=1;endArrow=none;endFill=0;" edge="1" parent="1" source="CX7M1dYOw_JfQIzqgFtG-49">
          <mxGeometry relative="1" as="geometry">
            <mxPoint x="450" y="611.5" as="targetPoint" />
          </mxGeometry>
        </mxCell>
        <mxCell id="CX7M1dYOw_JfQIzqgFtG-49" value="sbin" style="text;html=1;strokeColor=none;fillColor=none;align=left;verticalAlign=middle;whiteSpace=wrap;rounded=0;" vertex="1" parent="1">
          <mxGeometry x="470" y="617" width="40" height="15" as="geometry" />
        </mxCell>
        <mxCell id="CX7M1dYOw_JfQIzqgFtG-56" style="edgeStyle=orthogonalEdgeStyle;rounded=0;orthogonalLoop=1;jettySize=auto;html=1;strokeColor=#330000;strokeWidth=1;endArrow=none;endFill=0;" edge="1" parent="1" source="CX7M1dYOw_JfQIzqgFtG-50">
          <mxGeometry relative="1" as="geometry">
            <mxPoint x="450" y="626.5" as="targetPoint" />
          </mxGeometry>
        </mxCell>
        <mxCell id="CX7M1dYOw_JfQIzqgFtG-50" value="share" style="text;html=1;strokeColor=none;fillColor=none;align=left;verticalAlign=middle;whiteSpace=wrap;rounded=0;" vertex="1" parent="1">
          <mxGeometry x="470" y="632" width="40" height="15" as="geometry" />
        </mxCell>
        <mxCell id="CX7M1dYOw_JfQIzqgFtG-57" style="edgeStyle=orthogonalEdgeStyle;rounded=0;orthogonalLoop=1;jettySize=auto;html=1;strokeColor=#330000;strokeWidth=1;endArrow=none;endFill=0;" edge="1" parent="1" source="CX7M1dYOw_JfQIzqgFtG-51">
          <mxGeometry relative="1" as="geometry">
            <mxPoint x="450" y="640" as="targetPoint" />
          </mxGeometry>
        </mxCell>
        <mxCell id="CX7M1dYOw_JfQIzqgFtG-51" value="local" style="text;html=1;strokeColor=none;fillColor=none;align=left;verticalAlign=middle;whiteSpace=wrap;rounded=0;" vertex="1" parent="1">
          <mxGeometry x="470" y="647" width="30" height="15" as="geometry" />
        </mxCell>
        <mxCell id="CX7M1dYOw_JfQIzqgFtG-63" style="edgeStyle=orthogonalEdgeStyle;rounded=0;orthogonalLoop=1;jettySize=auto;html=1;strokeColor=#330000;strokeWidth=1;endArrow=none;endFill=0;" edge="1" parent="1" source="CX7M1dYOw_JfQIzqgFtG-60">
          <mxGeometry relative="1" as="geometry">
            <mxPoint x="520" y="644" as="targetPoint" />
          </mxGeometry>
        </mxCell>
        <mxCell id="CX7M1dYOw_JfQIzqgFtG-60" value="bin" style="text;html=1;strokeColor=none;fillColor=none;align=left;verticalAlign=middle;whiteSpace=wrap;rounded=0;" vertex="1" parent="1">
          <mxGeometry x="540" y="632" width="40" height="15" as="geometry" />
        </mxCell>
        <mxCell id="CX7M1dYOw_JfQIzqgFtG-64" style="edgeStyle=orthogonalEdgeStyle;rounded=0;orthogonalLoop=1;jettySize=auto;html=1;strokeColor=#330000;strokeWidth=1;endArrow=none;endFill=0;" edge="1" parent="1" source="CX7M1dYOw_JfQIzqgFtG-61" target="CX7M1dYOw_JfQIzqgFtG-51">
          <mxGeometry relative="1" as="geometry">
            <mxPoint x="520" y="640.5" as="targetPoint" />
          </mxGeometry>
        </mxCell>
        <mxCell id="CX7M1dYOw_JfQIzqgFtG-61" value="sbin" style="text;html=1;strokeColor=none;fillColor=none;align=left;verticalAlign=middle;whiteSpace=wrap;rounded=0;" vertex="1" parent="1">
          <mxGeometry x="540" y="647" width="40" height="15" as="geometry" />
        </mxCell>
        <mxCell id="CX7M1dYOw_JfQIzqgFtG-65" style="edgeStyle=orthogonalEdgeStyle;rounded=0;orthogonalLoop=1;jettySize=auto;html=1;strokeColor=#330000;strokeWidth=1;endArrow=none;endFill=0;" edge="1" parent="1" source="CX7M1dYOw_JfQIzqgFtG-62">
          <mxGeometry relative="1" as="geometry">
            <mxPoint x="520" y="644" as="targetPoint" />
          </mxGeometry>
        </mxCell>
        <mxCell id="CX7M1dYOw_JfQIzqgFtG-62" value="share" style="text;html=1;strokeColor=none;fillColor=none;align=left;verticalAlign=middle;whiteSpace=wrap;rounded=0;" vertex="1" parent="1">
          <mxGeometry x="540" y="662" width="40" height="15" as="geometry" />
        </mxCell>
        <mxCell id="CX7M1dYOw_JfQIzqgFtG-69" style="edgeStyle=orthogonalEdgeStyle;rounded=0;orthogonalLoop=1;jettySize=auto;html=1;entryX=0;entryY=0.5;entryDx=0;entryDy=0;strokeColor=#330000;strokeWidth=1;endArrow=none;endFill=0;" edge="1" parent="1" source="CX7M1dYOw_JfQIzqgFtG-67" target="CX7M1dYOw_JfQIzqgFtG-68">
          <mxGeometry relative="1" as="geometry" />
        </mxCell>
        <mxCell id="CX7M1dYOw_JfQIzqgFtG-70" style="edgeStyle=orthogonalEdgeStyle;rounded=0;orthogonalLoop=1;jettySize=auto;html=1;entryX=1;entryY=0.5;entryDx=0;entryDy=0;strokeColor=#330000;strokeWidth=1;endArrow=none;endFill=0;" edge="1" parent="1" source="CX7M1dYOw_JfQIzqgFtG-67" target="CX7M1dYOw_JfQIzqgFtG-5">
          <mxGeometry relative="1" as="geometry" />
        </mxCell>
        <mxCell id="CX7M1dYOw_JfQIzqgFtG-67" value="student" style="text;html=1;strokeColor=none;fillColor=none;align=left;verticalAlign=middle;whiteSpace=wrap;rounded=0;" vertex="1" parent="1">
          <mxGeometry x="470" y="530" width="50" height="15" as="geometry" />
        </mxCell>
        <mxCell id="CX7M1dYOw_JfQIzqgFtG-68" value="Downloads" style="text;html=1;strokeColor=none;fillColor=none;align=left;verticalAlign=middle;whiteSpace=wrap;rounded=0;" vertex="1" parent="1">
          <mxGeometry x="540" y="530" width="40" height="15" as="geometry" />
        </mxCell>
      </root>
    </mxGraphModel>
  </diagram>
</mxfile>
